<svg version="1.1" id="Layer_1" xmlns="http://www.w3.org/2000/svg" xmlns:xlink="http://www.w3.org/1999/xlink" x="0px" y="0px"
	 viewBox="0 0 15 14" enable-background="new 0 0 15 14" xml:space="preserve">
<path fill="#1E1F1D" d="M7.4,2.4c-0.4-0.3-0.4-0.9,0-1.3c0,0,0,0,0,0c0.4-0.3,0.9-0.3,1.3,0L14,6.5c0.2,0.2,0.3,0.4,0.3,0.6
	c0,0.3-0.1,0.5-0.3,0.6l-5.3,5.3c-0.3,0.4-0.9,0.4-1.3,0c0,0,0,0,0,0c-0.4-0.3-0.4-0.9,0-1.3c0,0,0,0,0,0L11.3,8H1.7
	C1.2,8,0.9,7.5,1,7C1,6.6,1.3,6.3,1.7,6.2h9.5L7.4,2.4z"/>
</svg>
